<svg xmlns="http://www.w3.org/2000/svg" aria-hidden="true" style="position:absolute;width:0;height:0;overflow:hidden">
  <defs>
    <symbol id="diagram" fill="none" viewBox="0 0 64 64">
      <g fill="var(--color1, #4d5ae5)" clip-path="url(#clip0_1004689_1305)">
        <path d="M29.851 29.93h2.132v9.594h-2.132zM38.38 34.194h2.132v5.33H38.38zM21.322 37.392h2.132v2.132h-2.132zM14.926 36.326h2.132v3.198h-2.132z"/>
        <path fill="var(--color2, #2e2f42)" d="M3.198 56.582h51.174a3.2 3.2 0 0 0 3.198-3.198v-4.265a3.2 3.2 0 0 0-3.198-3.198h-1.067V19.334l6.056-5.736a3.216 3.216 0 1 0-1.493-1.526l-4.563 4.325v-2.46a3.2 3.2 0 0 0-3.198-3.198H7.463a3.2 3.2 0 0 0-3.199 3.199V45.92H3.198A3.2 3.2 0 0 0 0 49.119v4.265a3.2 3.2 0 0 0 3.198 3.198m57.57-46.909a1.066 1.066 0 1 1 0 2.133 1.066 1.066 0 0 1 0-2.133M6.397 13.938c0-.59.477-1.067 1.066-1.067h42.644c.589 0 1.066.478 1.066 1.067v4.477l-2.132 2.026V16.07c0-.589-.477-1.066-1.066-1.066H9.595c-.589 0-1.066.477-1.066 1.066v26.653c0 .588.477 1.066 1.066 1.066h38.38c.589 0 1.066-.478 1.066-1.067V23.374l2.132-2.02V45.92H6.397zm9.595 13.859a3.198 3.198 0 1 0 2.214 5.497l3.706 1.86c.43.215.953.114 1.273-.246l7.877-8.863 7.744 5.803c.416.311.996.278 1.372-.079l6.73-6.375v16.262H10.662v-24.52H46.91v5.32L39.366 29.6l-7.81-5.854a1.067 1.067 0 0 0-1.435.144l-7.986 8.985-2.986-1.493q.033-.192.041-.387a3.2 3.2 0 0 0-3.198-3.198m1.066 3.198a1.066 1.066 0 1 1-2.133 0 1.066 1.066 0 0 1 2.133 0m6.396 17.058h10.661v1.066c0 .589-.477 1.066-1.066 1.066H24.52a1.066 1.066 0 0 1-1.066-1.066zM2.132 49.12c0-.589.478-1.066 1.066-1.066h18.124v1.066a3.2 3.2 0 0 0 3.198 3.198h8.53a3.2 3.2 0 0 0 3.198-3.198v-1.066h18.124c.588 0 1.066.477 1.066 1.066v4.265c0 .588-.478 1.066-1.067 1.066H3.198a1.066 1.066 0 0 1-1.066-1.066z"/>
      </g>
      <defs>
        <clipPath id="clip0_1004689_1305">
          <path fill="#fff" d="M0 0h64v64H0z"/>
        </clipPath>
      </defs>
    </symbol>
    <symbol id="instagram" fill="none" viewBox="0 0 16 16">
      <g fill="var(--color0, #f4f4fd)" clip-path="url(#clip0_1075869_400)">
        <path d="M15.984 4.704c-.037-.85-.175-1.435-.372-1.941a3.9 3.9 0 0 0-.925-1.419 3.9 3.9 0 0 0-1.416-.922c-.51-.197-1.09-.335-1.94-.372C10.473.01 10.2 0 8.03 0 5.857 0 5.585.01 4.732.047c-.85.037-1.435.175-1.94.372a3.9 3.9 0 0 0-1.42.925A3.9 3.9 0 0 0 .45 2.76C.253 3.27.116 3.85.078 4.7c-.04.857-.05 1.13-.05 3.302s.01 2.444.047 3.297c.037.85.175 1.435.372 1.941.203.538.519 1.019.925 1.42.4.405.885.721 1.416.921.51.197 1.09.335 1.941.372.853.038 1.125.047 3.298.047s2.444-.01 3.297-.047c.85-.037 1.435-.175 1.941-.372a4.1 4.1 0 0 0 2.341-2.34c.197-.51.335-1.092.372-1.942.038-.853.047-1.125.047-3.297s-.003-2.445-.04-3.298m-1.44 6.533c-.035.781-.166 1.203-.276 1.484a2.65 2.65 0 0 1-1.519 1.52c-.281.109-.706.24-1.484.274-.844.038-1.097.047-3.232.047s-2.391-.01-3.232-.047c-.782-.034-1.204-.165-1.485-.275a2.5 2.5 0 0 1-.919-.597 2.5 2.5 0 0 1-.597-.919c-.11-.28-.24-.706-.275-1.484-.037-.844-.047-1.097-.047-3.232s.01-2.391.047-3.232c.035-.781.166-1.203.275-1.485.128-.347.332-.662.6-.919.26-.265.572-.469.92-.597.28-.109.706-.24 1.484-.275.844-.037 1.097-.047 3.232-.047 2.138 0 2.39.01 3.232.047.781.035 1.203.166 1.484.275.347.128.663.332.92.597.265.26.468.572.596.92.11.28.241.706.275 1.484.038.844.047 1.097.047 3.232s-.009 2.385-.046 3.229"/>
        <path d="M8.03 3.891a4.111 4.111 0 0 0 0 8.22 4.111 4.111 0 0 0 0-8.22m0 6.777a2.667 2.667 0 1 1 0-5.333 2.667 2.667 0 0 1 0 5.333M13.262 3.729a.96.96 0 1 1-1.92 0 .96.96 0 0 1 1.92 0z"/>
      </g>
      <defs>
        <clipPath id="clip0_1075869_400">
          <path fill="#fff" d="M0 0h16v16H0z"/>
        </clipPath>
      </defs>
    </symbol>
  </defs>
</svg>
